<svg id="fb_2" data-name="fb 2" xmlns="http://www.w3.org/2000/svg" viewBox="0 0 24 24">
  <defs>
    <style>
      .cls-1 {
        fill: none;
      }

      .cls-2 {
        fill: #fff;
      }
    </style>
  </defs>
  <rect id="Rectangle_142" data-name="Rectangle 142" class="cls-1" width="24" height="24"/>
  <g id="facebook-logo" transform="translate(6)">
    <path id="Path_67" data-name="Path 67" class="cls-2" d="M34.587,0,31.469,0C27.966,0,25.7,2.318,25.7,5.906V8.63H22.567a.49.49,0,0,0-.49.49v3.946a.49.49,0,0,0,.49.489H25.7v9.956a.49.49,0,0,0,.49.489h4.09a.49.49,0,0,0,.49-.489V13.554h3.666a.49.49,0,0,0,.49-.489V9.119a.49.49,0,0,0-.491-.49H30.773V6.321c0-1.11.265-1.673,1.713-1.673h2.1a.49.49,0,0,0,.49-.489V.494A.49.49,0,0,0,34.587,0Z" transform="translate(-22.077)"/>
  </g>
</svg>
