<svg xmlns="http://www.w3.org/2000/svg" viewBox="0 0 24 24">
  <defs>
    <style>
      .cls-1 {
        fill: #fff;
      }

      .cls-2 {
        fill: none;
      }
    </style>
  </defs>
  <g id="g_" data-name="g+" transform="translate(0)">
    <g id="google-plus" transform="translate(0 4)">
      <path id="Path_68" data-name="Path 68" class="cls-1" d="M8.21,92.17h3.656a4.681,4.681,0,0,1-4.414,3.313,4.976,4.976,0,0,1,.035-9.927A4.465,4.465,0,0,1,10.6,86.844a.48.48,0,0,0,.685,0l1.343-1.351a.562.562,0,0,0,0-.78,7.219,7.219,0,0,0-5-2.19C3.508,82.435.029,86.051,0,90.462a7.76,7.76,0,0,0,7.486,8.057,7.721,7.721,0,0,0,7.474-7.55c.006-.053.01-1.836.01-1.836H8.21a.52.52,0,0,0-.5.536v1.964A.52.52,0,0,0,8.21,92.17Z" transform="translate(0 -82.519)"/>
      <path id="Path_69" data-name="Path 69" class="cls-1" d="M328.486,165.444v-1.8a.44.44,0,0,0-.44-.44h-1.512a.44.44,0,0,0-.44.44v1.8h-1.8a.44.44,0,0,0-.44.44v1.512a.44.44,0,0,0,.44.44h1.8v1.8a.44.44,0,0,0,.44.44h1.512a.44.44,0,0,0,.44-.44v-1.8h1.8a.44.44,0,0,0,.44-.44v-1.512a.44.44,0,0,0-.44-.44Z" transform="translate(-306.722 -158.566)"/>
    </g>
    <rect id="Rectangle_143" data-name="Rectangle 143" class="cls-2" width="24" height="24" transform="translate(0)"/>
  </g>
</svg>
